<svg xmlns="http://www.w3.org/2000/svg" width="32" height="32" viewBox="0 0 32 32" fill="none">
  <!-- Soyombo-inspired mark: flame, sun, moon over a map pin silhouette -->
  <rect width="32" height="32" rx="8" fill="#1366c2"/>
  <g fill="#fbf8f1">
    <!-- flame -->
    <path d="M16 6c1.6 1.6 2.4 3 1.2 4.6C18.8 10 19 8.6 18.4 7.6c.8 1.6.2 3-1 4 .9-.2 1.4-.9 1.5-1.8.5 1.8-.4 3.2-2.9 3.2s-3.4-1.4-2.9-3.2c.1.9.6 1.6 1.5 1.8-1.2-1-1.8-2.4-1-4-.6 1-.4 2.4 1.2 3C13.6 9 14.4 7.6 16 6Z"/>
    <!-- sun + moon -->
    <circle cx="16" cy="15.4" r="1.5"/>
    <path d="M12.6 16.4a2 2 0 1 0 0-2 1.4 1.4 0 0 1 0 2Z"/>
    <!-- pin drop -->
    <path d="M16 18c-3 0-5.2 2.2-5.2 5 0 3.4 5.2 7 5.2 7s5.2-3.6 5.2-7c0-2.8-2.2-5-5.2-5Zm0 7.2a2.2 2.2 0 1 1 0-4.4 2.2 2.2 0 0 1 0 4.4Z"/>
  </g>
</svg>
